<?xml version="1.0" encoding="UTF-8" standalone="no"?>
<svg
   width="207"
   height="52"
   viewBox="0 0 207 52"
   fill="none"
   version="1.1"
   id="svg6"
   sodipodi:docname="button_primary.svg"
   inkscape:version="1.1 (c68e22c387, 2021-05-23)"
   xmlns:inkscape="http://www.inkscape.org/namespaces/inkscape"
   xmlns:sodipodi="http://sodipodi.sourceforge.net/DTD/sodipodi-0.dtd"
   xmlns="http://www.w3.org/2000/svg"
   xmlns:svg="http://www.w3.org/2000/svg">
  <defs
     id="defs10" />
  <sodipodi:namedview
     id="namedview8"
     pagecolor="#ffffff"
     bordercolor="#666666"
     borderopacity="1.0"
     inkscape:pageshadow="2"
     inkscape:pageopacity="0.0"
     inkscape:pagecheckerboard="0"
     showgrid="false"
     inkscape:zoom="5.2463768"
     inkscape:cx="86.440608"
     inkscape:cy="22.015193"
     inkscape:window-width="1920"
     inkscape:window-height="1017"
     inkscape:window-x="-8"
     inkscape:window-y="-8"
     inkscape:window-maximized="1"
     inkscape:current-layer="svg6" />
  <path
     d="M0 26C0 11.6406 11.6406 0 26 0H181C195.359 0 207 11.6406 207 26C207 40.3594 195.359 52 181 52H26C11.6406 52 0 40.3594 0 26Z"
     fill="#F1CDB3"
     id="path2" />
  <path
     d="M59.9912 32H54.7866V31.4106C54.9748 31.4051 55.2155 31.3857 55.5088 31.3525C55.8076 31.3193 56.0124 31.2723 56.123 31.2114C56.2946 31.1063 56.4191 30.9873 56.4966 30.8545C56.5796 30.7161 56.6211 30.5446 56.6211 30.3398V21.7734H56.4966L52.479 31.8091H52.064L48.2373 21.5659H48.1294V28.5967C48.1294 29.2773 48.1709 29.7948 48.2539 30.1489C48.3424 30.5031 48.4753 30.7576 48.6523 30.9126C48.7741 31.0288 49.0259 31.1395 49.4077 31.2446C49.7896 31.3498 50.0386 31.4051 50.1548 31.4106V32H45.3984V31.4106C45.6475 31.3885 45.9076 31.347 46.1787 31.2861C46.4554 31.2253 46.6685 31.134 46.8179 31.0122C47.0116 30.8573 47.1444 30.6193 47.2163 30.2983C47.2882 29.9774 47.3242 29.4406 47.3242 28.688V22.6616C47.3242 22.313 47.2827 22.028 47.1997 21.8066C47.1167 21.5853 46.9977 21.4054 46.8428 21.2671C46.6712 21.1177 46.4609 21.007 46.2119 20.9351C45.9629 20.8631 45.7166 20.8216 45.4731 20.8105V20.2212H49.4907L52.8608 29.0532L55.7412 21.6655C55.8464 21.3944 55.9349 21.1121 56.0068 20.8188C56.0843 20.52 56.1258 20.3208 56.1313 20.2212H59.9746V20.8105C59.8197 20.8161 59.6204 20.841 59.377 20.8853C59.139 20.9295 58.9647 20.971 58.854 21.0098C58.6659 21.0762 58.5386 21.1868 58.4722 21.3418C58.4058 21.4967 58.3726 21.6655 58.3726 21.8481V30.3398C58.3726 30.5335 58.4058 30.6968 58.4722 30.8296C58.5386 30.9624 58.6659 31.0786 58.854 31.1782C58.9536 31.2336 59.1307 31.2861 59.3853 31.3359C59.6398 31.3802 59.8418 31.4051 59.9912 31.4106V32ZM70.1421 31.8506C69.882 31.9447 69.6523 32.0194 69.4531 32.0747C69.2594 32.1356 69.0381 32.166 68.789 32.166C68.3574 32.166 68.0115 32.0664 67.7514 31.8672C67.4969 31.6624 67.3336 31.3664 67.2617 30.979H67.2119C66.8522 31.3774 66.4648 31.6818 66.0498 31.8921C65.6403 32.1024 65.145 32.2075 64.5639 32.2075C63.9497 32.2075 63.4433 32.0194 63.0449 31.6431C62.652 31.2668 62.4555 30.7743 62.4555 30.1655C62.4555 29.8501 62.4998 29.5679 62.5884 29.3188C62.6769 29.0698 62.8097 28.8457 62.9868 28.6465C63.1251 28.4805 63.3078 28.3338 63.5346 28.2065C63.7615 28.0737 63.9746 27.9686 64.1738 27.8911C64.4228 27.797 64.9264 27.6227 65.6846 27.3682C66.4482 27.1136 66.9629 26.9144 67.2285 26.7705V25.9487C67.2285 25.8768 67.2119 25.7384 67.1787 25.5337C67.151 25.3289 67.0874 25.1353 66.9878 24.9526C66.8771 24.7479 66.7194 24.5708 66.5146 24.4214C66.3154 24.2664 66.0304 24.189 65.6596 24.189C65.4051 24.189 65.1671 24.2332 64.9458 24.3218C64.73 24.4048 64.5778 24.4933 64.4892 24.5874C64.4892 24.6981 64.5141 24.8613 64.5639 25.0771C64.6193 25.293 64.647 25.4922 64.647 25.6748C64.647 25.8685 64.5584 26.0456 64.3813 26.2061C64.2098 26.3665 63.9691 26.4468 63.6592 26.4468C63.3825 26.4468 63.1777 26.3499 63.0449 26.1562C62.9176 25.957 62.854 25.7357 62.854 25.4922C62.854 25.2376 62.9425 24.9941 63.1196 24.7617C63.3022 24.5293 63.5374 24.3218 63.8252 24.1392C64.0742 23.9842 64.3758 23.8542 64.73 23.749C65.0841 23.6383 65.43 23.583 65.7676 23.583C66.2324 23.583 66.6364 23.6162 66.9795 23.6826C67.3281 23.7435 67.6435 23.8791 67.9258 24.0894C68.208 24.2941 68.421 24.5736 68.5649 24.9277C68.7143 25.2764 68.789 25.7274 68.789 26.2808C68.789 27.0721 68.7807 27.7749 68.7641 28.3892C68.7475 28.9979 68.7392 29.6647 68.7392 30.3896C68.7392 30.6055 68.7752 30.777 68.8471 30.9043C68.9246 31.0316 69.0408 31.1395 69.1958 31.228C69.2788 31.2778 69.4088 31.3055 69.5859 31.311C69.7685 31.3166 69.9539 31.3193 70.1421 31.3193V31.8506ZM67.2451 27.4678C66.7747 27.6061 66.3624 27.7417 66.0083 27.8745C65.6541 28.0073 65.3249 28.1733 65.0205 28.3726C64.7438 28.5607 64.5252 28.7848 64.3647 29.0449C64.2042 29.2995 64.124 29.6038 64.124 29.958C64.124 30.4173 64.243 30.7549 64.4809 30.9707C64.7244 31.1865 65.0316 31.2944 65.4023 31.2944C65.7952 31.2944 66.1411 31.2004 66.4399 31.0122C66.7388 30.8185 66.9905 30.5916 67.1953 30.3315L67.2451 27.4678ZM80.6499 32H78.1762C77.7446 31.3747 77.2825 30.7051 76.79 29.9912C76.2975 29.2773 75.7856 28.5828 75.2544 27.9077L74.5737 28.5469V30.4893C74.5737 30.6885 74.6097 30.8545 74.6816 30.9873C74.7535 31.1146 74.8698 31.2087 75.0302 31.2695C75.163 31.3249 75.2903 31.3664 75.4121 31.394C75.5338 31.4217 75.6749 31.4411 75.8354 31.4521V32H71.8178V31.4521C71.9451 31.4411 72.0779 31.43 72.2163 31.4189C72.3546 31.4023 72.4708 31.3802 72.5649 31.3525C72.7199 31.3027 72.8361 31.217 72.9135 31.0952C72.991 30.9679 73.0297 30.8047 73.0297 30.6055V21.0928C73.0297 20.888 72.9855 20.6971 72.8969 20.52C72.8139 20.3374 72.7032 20.1991 72.5649 20.105C72.4487 20.0164 72.2661 19.9583 72.0171 19.9307C71.7736 19.903 71.5771 19.8836 71.4277 19.8726V19.3413L74.4575 19.1504L74.5737 19.2749V27.9326C75.0053 27.501 75.4702 27.0389 75.9682 26.5464C76.4718 26.0483 76.8951 25.6056 77.2382 25.2183C77.2825 25.1685 77.3296 25.1048 77.3794 25.0273C77.4347 24.9443 77.4624 24.8779 77.4624 24.8281C77.4624 24.6787 77.3406 24.568 77.0971 24.4961C76.8592 24.4242 76.6295 24.3743 76.4082 24.3467V23.8154H80.0107V24.3301C79.5459 24.4684 79.1336 24.6427 78.7739 24.853C78.4197 25.0578 78.1486 25.2432 77.9604 25.4092C77.8276 25.5199 77.6394 25.6997 77.396 25.9487C77.1525 26.1978 76.8121 26.5243 76.375 26.9282C76.8287 27.4871 77.3379 28.1567 77.9023 28.937C78.4723 29.7173 78.8873 30.2817 79.1474 30.6304C79.3909 30.9569 79.6095 31.1699 79.8032 31.2695C79.9969 31.3691 80.2791 31.43 80.6499 31.4521V32ZM89.3813 30.0742C89.0382 30.7272 88.5789 31.2474 88.0034 31.6348C87.4278 32.0221 86.7665 32.2158 86.0195 32.2158C85.3609 32.2158 84.7827 32.0996 84.2846 31.8672C83.7921 31.6348 83.3854 31.3193 83.0644 30.9209C82.7434 30.5225 82.5027 30.0576 82.3422 29.5264C82.1873 28.9951 82.1098 28.4334 82.1098 27.8413C82.1098 27.3101 82.1928 26.7899 82.3588 26.2808C82.5304 25.7661 82.7794 25.304 83.1059 24.8945C83.4213 24.5016 83.8115 24.1862 84.2763 23.9482C84.7467 23.7048 85.2724 23.583 85.8535 23.583C86.4511 23.583 86.963 23.6771 87.3891 23.8652C87.8152 24.0534 88.1611 24.3107 88.4267 24.6372C88.6813 24.9471 88.8694 25.3123 88.9912 25.7329C89.1184 26.1535 89.1821 26.61 89.1821 27.1025V27.6504H83.7617C83.7617 28.1872 83.8115 28.6742 83.9111 29.1113C84.0162 29.5485 84.1795 29.9331 84.4008 30.2651C84.6166 30.5861 84.8989 30.8407 85.2475 31.0288C85.5961 31.2114 86.0112 31.3027 86.4926 31.3027C86.9851 31.3027 87.4085 31.1893 87.7626 30.9624C88.1223 30.73 88.4682 30.3149 88.8002 29.7173L89.3813 30.0742ZM87.5468 26.9531C87.5468 26.6432 87.5191 26.3112 87.4638 25.957C87.414 25.6029 87.331 25.3068 87.2148 25.0688C87.0875 24.8143 86.9132 24.6068 86.6918 24.4463C86.4705 24.2858 86.1855 24.2056 85.8369 24.2056C85.2558 24.2056 84.7716 24.4491 84.3842 24.936C84.0024 25.4175 83.7949 26.0898 83.7617 26.9531H87.5468ZM104.221 31.8506C103.961 31.9447 103.731 32.0194 103.532 32.0747C103.338 32.1356 103.117 32.166 102.868 32.166C102.436 32.166 102.091 32.0664 101.83 31.8672C101.576 31.6624 101.413 31.3664 101.341 30.979H101.291C100.931 31.3774 100.544 31.6818 100.129 31.8921C99.7193 32.1024 99.224 32.2075 98.643 32.2075C98.0287 32.2075 97.5224 32.0194 97.1239 31.6431C96.731 31.2668 96.5346 30.7743 96.5346 30.1655C96.5346 29.8501 96.5788 29.5679 96.6674 29.3188C96.7559 29.0698 96.8887 28.8457 97.0658 28.6465C97.2042 28.4805 97.3868 28.3338 97.6137 28.2065C97.8406 28.0737 98.0536 27.9686 98.2528 27.8911C98.5019 27.797 99.0054 27.6227 99.7636 27.3682C100.527 27.1136 101.042 26.9144 101.308 26.7705V25.9487C101.308 25.8768 101.291 25.7384 101.258 25.5337C101.23 25.3289 101.166 25.1353 101.067 24.9526C100.956 24.7479 100.798 24.5708 100.594 24.4214C100.394 24.2664 100.109 24.189 99.7387 24.189C99.4841 24.189 99.2462 24.2332 99.0248 24.3218C98.809 24.4048 98.6568 24.4933 98.5683 24.5874C98.5683 24.6981 98.5932 24.8613 98.643 25.0771C98.6983 25.293 98.726 25.4922 98.726 25.6748C98.726 25.8685 98.6374 26.0456 98.4604 26.2061C98.2888 26.3665 98.0481 26.4468 97.7382 26.4468C97.4615 26.4468 97.2567 26.3499 97.1239 26.1562C96.9966 25.957 96.933 25.7357 96.933 25.4922C96.933 25.2376 97.0215 24.9941 97.1986 24.7617C97.3812 24.5293 97.6164 24.3218 97.9042 24.1392C98.1532 23.9842 98.4548 23.8542 98.809 23.749C99.1631 23.6383 99.509 23.583 99.8466 23.583C100.311 23.583 100.715 23.6162 101.058 23.6826C101.407 23.7435 101.723 23.8791 102.005 24.0894C102.287 24.2941 102.5 24.5736 102.644 24.9277C102.793 25.2764 102.868 25.7274 102.868 26.2808C102.868 27.0721 102.86 27.7749 102.843 28.3892C102.827 28.9979 102.818 29.6647 102.818 30.3896C102.818 30.6055 102.854 30.777 102.926 30.9043C103.004 31.0316 103.12 31.1395 103.275 31.228C103.358 31.2778 103.488 31.3055 103.665 31.311C103.848 31.3166 104.033 31.3193 104.221 31.3193V31.8506ZM101.324 27.4678C100.854 27.6061 100.441 27.7417 100.087 27.8745C99.7331 28.0073 99.4039 28.1733 99.0995 28.3726C98.8228 28.5607 98.6042 28.7848 98.4437 29.0449C98.2833 29.2995 98.203 29.6038 98.203 29.958C98.203 30.4173 98.322 30.7549 98.56 30.9707C98.8034 31.1865 99.1106 31.2944 99.4813 31.2944C99.8742 31.2944 100.22 31.2004 100.519 31.0122C100.818 30.8185 101.07 30.5916 101.274 30.3315L101.324 27.4678ZM117.268 20.1382C117.268 20.3872 117.202 20.5975 117.069 20.769C116.936 20.9406 116.734 21.0264 116.463 21.0264C116.291 21.0264 116.139 20.9904 116.006 20.9185C115.879 20.8465 115.76 20.7497 115.649 20.6279C115.539 20.5062 115.436 20.3678 115.342 20.2129C115.248 20.0579 115.168 19.9334 115.101 19.8394C114.731 19.856 114.443 20.116 114.238 20.6196C114.039 21.1177 113.939 21.9146 113.939 23.0103V23.8486H116.048V24.6455H113.939V30.5225C113.939 30.7161 113.975 30.8739 114.047 30.9956C114.125 31.1174 114.244 31.2087 114.404 31.2695C114.537 31.3193 114.714 31.3608 114.935 31.394C115.157 31.4217 115.348 31.4411 115.508 31.4521V32H111.192V31.4521C111.319 31.4411 111.449 31.43 111.582 31.4189C111.72 31.4079 111.839 31.3857 111.939 31.3525C112.094 31.3027 112.207 31.217 112.279 31.0952C112.357 30.9679 112.395 30.8047 112.395 30.6055V24.6455H110.777V23.8486H112.395V23.3257C112.395 22.0806 112.716 21.0734 113.358 20.3042C114.006 19.5295 114.814 19.1421 115.782 19.1421C116.275 19.1421 116.645 19.2389 116.894 19.4326C117.143 19.6263 117.268 19.8615 117.268 20.1382ZM123.991 24.8696C123.991 25.1519 123.921 25.4036 123.783 25.625C123.645 25.8408 123.432 25.9487 123.144 25.9487C122.834 25.9487 122.596 25.8685 122.43 25.708C122.27 25.5475 122.189 25.3704 122.189 25.1768C122.189 25.055 122.198 24.9443 122.214 24.8447C122.236 24.7451 122.256 24.6455 122.272 24.5459C122.012 24.5459 121.708 24.651 121.359 24.8613C121.011 25.0716 120.715 25.3704 120.471 25.7578V30.5225C120.471 30.7161 120.507 30.8739 120.579 30.9956C120.656 31.1174 120.775 31.2087 120.936 31.2695C121.074 31.3249 121.251 31.3664 121.467 31.394C121.688 31.4217 121.879 31.4411 122.04 31.4521V32H117.723V31.4521C117.851 31.4411 117.981 31.43 118.114 31.4189C118.252 31.4079 118.371 31.3857 118.471 31.3525C118.625 31.3027 118.739 31.217 118.811 31.0952C118.888 30.9679 118.927 30.8047 118.927 30.6055V25.5503C118.927 25.3787 118.886 25.21 118.803 25.0439C118.725 24.8779 118.614 24.7451 118.471 24.6455C118.365 24.5791 118.241 24.5321 118.097 24.5044C117.953 24.4712 117.798 24.4491 117.632 24.438V23.8984L120.355 23.7158L120.471 23.832V24.9858H120.513C120.856 24.5376 121.237 24.1973 121.658 23.9648C122.079 23.7324 122.463 23.6162 122.812 23.6162C123.16 23.6162 123.443 23.7297 123.659 23.9565C123.88 24.1834 123.991 24.4878 123.991 24.8696ZM129.692 32H125.733V31.4521C125.86 31.4411 125.99 31.43 126.123 31.4189C126.261 31.4079 126.38 31.3857 126.48 31.3525C126.635 31.3027 126.748 31.217 126.82 31.0952C126.898 30.9679 126.936 30.8047 126.936 30.6055V25.5503C126.936 25.3732 126.895 25.2127 126.812 25.0688C126.734 24.9194 126.624 24.7949 126.48 24.6953C126.375 24.6289 126.222 24.5736 126.023 24.5293C125.824 24.4795 125.641 24.4491 125.475 24.438V23.8984L128.364 23.7158L128.48 23.832V30.5059C128.48 30.6995 128.516 30.86 128.588 30.9873C128.666 31.1146 128.785 31.2087 128.945 31.2695C129.067 31.3193 129.186 31.3608 129.302 31.394C129.418 31.4217 129.548 31.4411 129.692 31.4521V32ZM128.646 20.4868C128.646 20.8022 128.541 21.0789 128.331 21.3169C128.126 21.5493 127.872 21.6655 127.567 21.6655C127.285 21.6655 127.039 21.5549 126.828 21.3335C126.624 21.1066 126.521 20.8493 126.521 20.5615C126.521 20.2572 126.624 19.9915 126.828 19.7646C127.039 19.5378 127.285 19.4243 127.567 19.4243C127.883 19.4243 128.14 19.5322 128.339 19.748C128.544 19.9583 128.646 20.2046 128.646 20.4868ZM138.988 30.0742C138.645 30.7272 138.186 31.2474 137.61 31.6348C137.035 32.0221 136.373 32.2158 135.626 32.2158C134.968 32.2158 134.389 32.0996 133.891 31.8672C133.399 31.6348 132.992 31.3193 132.671 30.9209C132.35 30.5225 132.11 30.0576 131.949 29.5264C131.794 28.9951 131.717 28.4334 131.717 27.8413C131.717 27.3101 131.8 26.7899 131.966 26.2808C132.137 25.7661 132.386 25.304 132.713 24.8945C133.028 24.5016 133.418 24.1862 133.883 23.9482C134.353 23.7048 134.879 23.583 135.46 23.583C136.058 23.583 136.57 23.6771 136.996 23.8652C137.422 24.0534 137.768 24.3107 138.033 24.6372C138.288 24.9471 138.476 25.3123 138.598 25.7329C138.725 26.1535 138.789 26.61 138.789 27.1025V27.6504H133.368C133.368 28.1872 133.418 28.6742 133.518 29.1113C133.623 29.5485 133.786 29.9331 134.008 30.2651C134.223 30.5861 134.506 30.8407 134.854 31.0288C135.203 31.2114 135.618 31.3027 136.099 31.3027C136.592 31.3027 137.015 31.1893 137.369 30.9624C137.729 30.73 138.075 30.3149 138.407 29.7173L138.988 30.0742ZM137.154 26.9531C137.154 26.6432 137.126 26.3112 137.071 25.957C137.021 25.6029 136.938 25.3068 136.822 25.0688C136.694 24.8143 136.52 24.6068 136.299 24.4463C136.077 24.2858 135.792 24.2056 135.444 24.2056C134.863 24.2056 134.378 24.4491 133.991 24.936C133.609 25.4175 133.402 26.0898 133.368 26.9531H137.154ZM149.994 32H145.985V31.4521C146.112 31.4411 146.25 31.43 146.4 31.4189C146.555 31.4079 146.682 31.3857 146.782 31.3525C146.936 31.3027 147.05 31.217 147.122 31.0952C147.199 30.9679 147.238 30.8047 147.238 30.6055V26.397C147.238 25.8159 147.1 25.3677 146.823 25.0522C146.552 24.7368 146.22 24.5791 145.827 24.5791C145.534 24.5791 145.265 24.6261 145.022 24.7202C144.778 24.8088 144.562 24.9194 144.374 25.0522C144.192 25.1795 144.045 25.3179 143.934 25.4673C143.829 25.6112 143.752 25.7274 143.702 25.8159V30.5225C143.702 30.7106 143.741 30.8656 143.818 30.9873C143.896 31.109 144.012 31.2031 144.167 31.2695C144.283 31.3249 144.408 31.3664 144.54 31.394C144.679 31.4217 144.82 31.4411 144.964 31.4521V32H140.954V31.4521C141.082 31.4411 141.212 31.43 141.345 31.4189C141.483 31.4079 141.602 31.3857 141.701 31.3525C141.856 31.3027 141.97 31.217 142.042 31.0952C142.119 30.9679 142.158 30.8047 142.158 30.6055V25.5503C142.158 25.3621 142.116 25.1906 142.033 25.0356C141.956 24.8752 141.845 24.7451 141.701 24.6455C141.596 24.5791 141.472 24.5321 141.328 24.5044C141.184 24.4712 141.029 24.4491 140.863 24.438V23.8984L143.586 23.7158L143.702 23.832V24.9858H143.743C143.876 24.853 144.042 24.6953 144.241 24.5127C144.441 24.3245 144.629 24.1724 144.806 24.0562C145.011 23.9233 145.254 23.8127 145.536 23.7241C145.819 23.6356 146.137 23.5913 146.491 23.5913C147.277 23.5913 147.858 23.8376 148.234 24.3301C148.616 24.8171 148.807 25.4673 148.807 26.2808V30.5391C148.807 30.7327 148.84 30.8905 148.907 31.0122C148.973 31.1284 149.086 31.2197 149.247 31.2861C149.38 31.3415 149.493 31.3802 149.587 31.4023C149.687 31.4245 149.822 31.4411 149.994 31.4521V32ZM160.983 31.8506L158.128 32.0332L158.003 31.917V31.1533L157.937 31.1367C157.649 31.4577 157.292 31.7205 156.866 31.9253C156.445 32.13 156.011 32.2324 155.563 32.2324C155.098 32.2324 154.647 32.13 154.21 31.9253C153.778 31.715 153.402 31.4217 153.081 31.0454C152.754 30.6636 152.494 30.2043 152.301 29.6675C152.112 29.1307 152.018 28.5386 152.018 27.8911C152.018 27.299 152.121 26.7373 152.325 26.2061C152.53 25.6748 152.812 25.21 153.172 24.8115C153.51 24.4408 153.922 24.1447 154.409 23.9233C154.901 23.702 155.402 23.5913 155.911 23.5913C156.293 23.5913 156.667 23.6411 157.032 23.7407C157.403 23.8348 157.721 23.9565 157.987 24.106V21.2588C157.987 21.0264 157.948 20.8161 157.87 20.6279C157.793 20.4342 157.685 20.2876 157.547 20.188C157.392 20.0828 157.181 20.0081 156.916 19.9639C156.656 19.9141 156.373 19.8781 156.069 19.856V19.3413L159.414 19.1504L159.539 19.2749V30.3149C159.539 30.5086 159.575 30.6746 159.647 30.813C159.724 30.9458 159.835 31.0592 159.979 31.1533C160.084 31.2197 160.236 31.2612 160.435 31.2778C160.635 31.2944 160.817 31.3055 160.983 31.311V31.8506ZM157.987 30.4146V25.625C157.942 25.4811 157.87 25.3262 157.771 25.1602C157.671 24.9941 157.547 24.842 157.397 24.7036C157.237 24.5653 157.049 24.4518 156.833 24.3633C156.617 24.2692 156.365 24.2222 156.077 24.2222C155.745 24.2222 155.438 24.3079 155.156 24.4795C154.879 24.651 154.633 24.8973 154.417 25.2183C154.212 25.5282 154.049 25.9238 153.927 26.4053C153.811 26.8812 153.753 27.4097 153.753 27.9907C153.753 28.4556 153.797 28.8789 153.886 29.2607C153.975 29.637 154.124 29.9884 154.334 30.3149C154.528 30.6248 154.774 30.8739 155.073 31.062C155.377 31.2502 155.737 31.3442 156.152 31.3442C156.595 31.3442 156.96 31.2474 157.248 31.0537C157.541 30.86 157.787 30.647 157.987 30.4146Z"
     fill="#292929"
     id="path4" />
  <path
     style="fill:#f1cdb3;fill-opacity:1"
     id="path6739"
     d="m 42.370555,26.372521 c 0.617487,0.664262 1.516335,0.93107 2.323897,1.286564 0.549027,0.241685 1.094705,0.490908 1.642406,0.735581 0.66175,0.320533 1.362686,0.577512 1.995509,0.957005 0.115536,0.06929 0.224022,0.150771 0.3264,0.238336 0.05084,0.04348 0.186998,0.188274 0.130501,0.152456 -0.120936,-0.07667 -0.218569,-0.18505 -0.327854,-0.277575 4.044472,-2.631976 8.088945,-5.263953 12.133418,-7.89593 -0.204553,0.110784 -0.388346,0.274475 -0.613657,0.332351 -0.309096,0.0794 -0.635689,0.07478 -0.954792,0.07054 -1.118569,-0.01488 -2.174255,-0.316382 -3.235079,-0.632575 -1.421093,-0.561845 -2.851039,-1.327122 -3.880447,-2.490343 -0.113084,-0.127784 -0.194517,-0.28041 -0.291776,-0.420615 0.0072,-0.07731 -0.0513,-0.258539 0.02163,-0.231917 0.224046,0.08178 0.760068,0.313551 0.560713,0.444478 -3.987816,2.619007 -8.278442,4.749658 -12.322878,7.280353 -0.210583,0.131766 0.498138,-0.06813 0.744387,-0.03543 0.683988,0.09082 1.945187,0.590229 2.512471,0.792907 1.464634,0.657294 2.92056,1.34417 4.319892,2.133272 0.610645,0.34435 1.217332,0.677513 1.718363,1.175039 0.09445,0.09379 0.148322,0.221059 0.222483,0.331588 -4.261246,-3.473238 -0.374972,0.0032 11.390754,-7.968473 0.300089,-0.20332 -0.719767,0.109344 -1.082235,0.106287 -0.461523,-0.0039 -0.922688,-0.05633 -1.37878,-0.12704 -1.335128,-0.206981 -1.826774,-0.415913 -3.126922,-0.822667 -1.416204,-0.549414 -2.816198,-1.163791 -4.138109,-1.916363 -0.288977,-0.164517 -0.575864,-0.335577 -0.842142,-0.534748 -0.129986,-0.09723 -0.200689,-0.433235 -0.339512,-0.349107 -4.2259,2.560923 -8.283516,5.389769 -12.425274,8.084653 0.327444,0.219296 0.648188,0.448945 0.982334,0.657887 0.909027,0.568415 1.848084,1.087406 2.766455,1.640597 1.654163,0.996403 3.282284,2.024488 4.893627,3.088414 0.295023,0.255771 0.618594,0.481923 0.885071,0.767314 0.114371,0.122488 0.161712,0.293574 0.242568,0.440361 3.969381,-2.864684 7.924385,-5.749395 11.908141,-8.594053 0.164092,-0.117172 -0.244648,0.39258 -0.445604,0.409067 -0.458335,0.0376 -1.89135,-0.639087 -2.228248,-0.782961 -1.599426,-0.775016 -3.005511,-1.856276 -4.193287,-3.17521 -0.792044,-0.879505 -0.617301,-0.587233 -0.890681,-1.470398 5.190624,1.357078 -0.247401,-0.188692 -11.902506,7.664153 -0.239321,0.161248 0.567765,0.127004 0.828891,0.249839 0.462005,0.21733 0.899659,0.485527 1.327307,0.764448 1.063873,0.693877 1.655355,1.232991 2.625143,2.040153 0.745673,0.697719 1.202687,1.02327 1.738283,1.853332 0.234309,0.36313 0.469561,0.884258 0.128468,0.911947 -0.189089,0.01535 -0.684237,-0.11632 -0.525078,-0.21956 3.935581,-2.552845 8.037267,-4.839999 12.0559,-7.259998 -0.252207,0.06712 -0.496739,0.177392 -0.756622,0.201364 -0.962414,0.08878 -2.110304,-0.21431 -3.031958,-0.46449 -0.886949,-0.240758 -0.673386,-0.0275 -0.979574,-0.472803 -14.640103,10.745977 -16.044646,7.883383 -9.843797,8.645146 3.008737,0.369618 5.975978,1.078111 8.922149,1.772491 0.2953,0.07505 2.588694,0.636413 3.055025,0.824278 0.167275,0.06739 0.28868,0.423922 0.436147,0.320117 3.953509,-2.782961 8.076915,-5.407762 11.557928,-8.763005 0.426103,-0.410709 -1.018497,-0.603031 -1.527416,-0.905102 -0.60393,-0.358464 -1.207421,-0.717669 -1.811131,-1.076503 -2.91789,-1.781671 -5.66123,-3.824418 -8.234246,-6.073573 -1.552538,-1.357122 -1.974712,-1.806427 -3.415401,-3.213638 -0.511884,-0.540663 -1.850647,-1.815871 -2.182397,-2.623441 -0.09893,-0.240833 0.0195,-0.520359 0.02925,-0.780538 -3.656439,2.548476 -7.714059,4.601159 -10.969317,7.645429 -0.63871,0.597312 1.758412,0.0053 2.618321,0.164301 1.212345,0.224203 2.377767,0.653002 3.566651,0.979503 5.655004,1.947968 11.220449,4.153819 16.668031,6.623141 2.85114,1.292387 3.672637,1.72151 6.381367,3.055008 0.797624,0.420076 1.603303,0.825199 2.392871,1.260227 0.628388,0.346222 1.269088,0.676174 1.860047,1.083 0.341055,0.234788 0.69648,0.485107 0.922115,0.832286 0.06782,0.10436 -0.265563,0.406272 -0.162819,0.336023 12.438727,-8.504762 16.029381,-8.518441 9.319634,-7.836586 -3.552635,-0.0524 -7.052007,-0.701384 -10.507819,-1.472991 -1.099794,-0.245561 -4.111528,-0.879995 -5.331356,-1.556531 -0.185773,-0.103033 -0.203722,-0.372835 -0.305583,-0.559253 -3.666508,2.822885 -7.749897,5.174434 -10.999523,8.468655 -0.538732,0.546124 1.517805,0.228517 2.269614,0.381054 0.890827,0.180744 1.774737,0.395207 2.655911,0.618305 2.603981,0.659284 5.168873,1.465038 7.735161,2.254758 0.691369,0.228498 1.386147,0.446929 2.074106,0.685495 0.568596,0.197174 1.142185,0.383875 1.695074,0.621555 0.318131,0.13676 0.659461,0.26111 0.911226,0.49886 0.0797,0.07526 -0.124836,0.392247 -0.03691,0.326782 12.118568,-9.023006 15.737249,-7.929328 8.851936,-8.939022 -5.561413,-1.103692 -11.068181,-2.611145 -16.313834,-4.783907 -0.959274,-0.397334 -1.893877,-0.851793 -2.840815,-1.27769 -1.088859,-0.676909 -2.702125,-1.462068 -3.466761,-2.629218 -0.193725,-0.295704 -0.374467,-0.72436 -0.213116,-1.038902 0.151445,-0.295232 1.205346,-0.54099 0.929194,-0.35704 -3.340466,2.225151 -7.048698,3.933617 -10.140601,6.492942 -0.761798,0.630579 1.947556,-0.344791 2.921334,-0.517187 1.168923,0.01683 2.34025,-0.02632 3.506767,0.05049 5.524008,0.363736 11.021721,1.72402 16.318807,3.270565 1.135004,0.331377 2.259235,0.698595 3.388853,1.047892 1.551903,0.565485 3.242628,1.125293 4.742636,1.853982 0.407534,0.197976 0.833508,0.386724 1.172911,0.686862 0.101415,0.08968 -0.0532,0.478686 0.05832,0.401932 3.80496,-2.618758 7.725511,-5.115051 11.204477,-8.153538 0.56528,-0.493708 -1.486304,0.20991 -2.229456,0.314865 -0.958015,-0.02023 -1.917508,-0.0038 -2.874045,-0.06068 -0.969931,-0.05772 -1.936247,-0.168893 -2.90117,-0.283009 -3.058705,-0.361733 -6.081349,-0.94866 -9.086224,-1.61375 -0.382978,-0.132301 -1.009657,-0.7774 -1.148933,-0.396903 -0.141162,0.385648 0.714597,0.404912 1.071895,0.607368 -3.584765,2.432381 -7.566364,4.363867 -10.754295,7.297144 -0.701111,0.645106 1.905735,-0.06009 2.858054,-0.03166 2.566325,0.07661 4.11105,0.31222 6.673393,0.608495 3.04476,0.428253 6.066998,1.009341 9.064686,1.690956 0.743105,0.168967 3.197154,0.739115 4.043877,1.072909 0.274267,0.108121 0.500606,0.31152 0.750908,0.46728 3.838233,-2.812845 7.896688,-5.347561 11.514698,-8.438536 0.492089,-0.420403 -1.278822,0.258597 -1.925924,0.246556 -1.005096,-0.0187 -2.004178,-0.179139 -2.996791,-0.338155 -2.32813,-0.372965 -4.99434,-1.025111 -7.247892,-1.685999 -1.189503,-0.34884 -2.358265,-0.764862 -3.537397,-1.147293 -2.947844,-1.00983 -5.778309,-2.325238 -8.477942,-3.877354 -1.208975,-0.695084 -2.548969,-1.501778 -3.59317,-2.455915 -0.345222,-0.315447 -0.616033,-0.703736 -0.92405,-1.055604 -0.08661,-0.261174 -0.321477,-0.515352 -0.259845,-0.783523 0.03737,-0.162598 0.61532,-0.246974 0.475692,-0.155659 -3.890324,2.544223 -7.945472,4.840817 -11.741666,7.523465 -0.339656,0.240024 0.83167,-0.163951 1.243323,-0.104625 1.31854,0.190024 3.056318,1.06176 4.206526,1.562978 2.317277,1.16964 4.546102,2.502644 6.725583,3.909777 0.526074,0.339648 2.898968,1.904042 3.46121,2.36177 0.367989,0.299585 0.675749,0.666357 1.013624,0.999536 -0.05461,0.206356 0.0158,0.503768 -0.163843,0.619069 -0.267122,0.17145 -1.213479,0.267571 -0.947553,0.09427 3.42898,-2.234622 7.065697,-4.136617 10.519721,-6.33233 0.616427,-0.391861 -1.313809,0.642036 -1.992648,0.911692 -1.542124,0.612581 -2.728479,0.901055 -4.315106,1.345043 -1.617316,0.390088 -3.244831,0.762039 -4.890018,1.018004 -0.312706,0.04865 -0.626237,0.106452 -0.942633,0.113179 -0.09335,0.002 -0.191618,-0.143769 -0.266117,-0.08748 -3.794214,2.866935 -7.49491,5.855579 -11.242366,8.783369 0.547162,-0.0318 1.094198,-0.06585 1.641486,-0.09539 1.850719,-0.0999 3.018826,-0.169398 4.924544,-0.165165 2.829366,0.0063 5.645315,0.201797 8.46419,0.419558 0.771174,0.07645 1.543787,0.139551 2.313522,0.229343 0.603693,0.07042 1.212182,0.121529 1.805974,0.251209 0.25819,0.05639 0.544289,0.117733 0.732566,0.303188 0.08442,0.08315 -0.164722,0.421022 -0.0712,0.348266 11.777486,-9.162436 15.540472,-8.3378 9.034184,-8.988341 -3.918018,-0.557514 -7.665423,-1.840869 -11.300985,-3.36185 0.711642,-0.2186 -1.852813,-0.465517 -1.55658,-1.008081 0.09717,-0.177962 0.740477,0.0844 0.57427,0.200535 -3.743525,2.615678 -7.757745,4.828442 -11.505836,7.437574 -0.483874,0.336836 1.093424,-0.455808 1.667741,-0.589048 0.846113,-0.196296 1.717054,-0.263596 2.575581,-0.395394 5.663541,-0.472914 11.370907,-0.06666 16.991802,0.698924 0.729201,0.09932 1.45346,0.23205 2.180191,0.348075 5.296276,1.674995 2.650172,1.104401 12.402251,-8.125364 0.50344,-0.476476 -1.33018,-0.39058 -1.99485,-0.587284 -1.560848,-0.461919 -2.631809,-0.734395 -4.125594,-1.37086 -0.522767,-0.222738 -1.016659,-0.507931 -1.524988,-0.761896 -0.279673,-0.232545 -0.614576,-0.411418 -0.839018,-0.697634 -0.0867,-0.110559 -0.02485,-0.279895 -0.03728,-0.419842 -3.87586,2.703314 -7.887862,5.221222 -11.62758,8.109942 -0.392419,0.303122 0.969804,-0.290128 1.464729,-0.259715 1.391848,0.08553 3.666267,0.914938 4.931162,1.321461 1.365959,0.547116 3.024198,1.140945 4.31422,1.902148 0.310076,0.182966 0.529385,0.869577 0.83706,0.682601 4.03498,-2.452078 8.033109,-5.051129 11.544939,-8.207204 0.45544,-0.409307 -1.16689,-0.376297 -1.7323,-0.6114 -0.59697,-0.248226 -1.1666,-0.557684 -1.7499,-0.836527 -0.44622,-0.274904 -0.9029,-0.533514 -1.33866,-0.824713 -4.863608,-3.250105 2.45961,-5.326915 -13.530606,6.752148 -0.500469,0.378056 0.911558,0.865032 1.408719,1.247428 0.432995,0.333043 0.923309,0.584484 1.374103,0.893008 0.490131,0.335447 0.965287,0.692266 1.447931,1.038399 0.474836,0.360112 0.955232,0.713009 1.424508,1.080337 0.286186,0.224013 1.802144,1.350925 2.036719,1.88414 0.04968,0.112927 -0.374312,0.320123 -0.272472,0.250488 12.303838,-8.41305 16.157618,-6.503719 9.829998,-8.713578 -0.7517,-0.406332 -1.5254,-0.774347 -2.25509,-1.218997 -1.60595,-0.978622 -3.011934,-2.062844 -4.456651,-3.261041 -0.978634,-0.811644 -2.709293,-2.361427 -3.636004,-3.28344 -0.466164,-0.4638 -0.899535,-0.959435 -1.349303,-1.439153 -0.155512,-0.385447 -0.539392,-0.74714 -0.466536,-1.156341 0.04457,-0.250304 0.930591,-0.396569 0.718154,-0.256896 -3.780763,2.485792 -7.772076,4.657114 -11.440118,7.306416 -0.376302,0.27179 0.932218,-0.114639 1.391715,-0.0488 1.438367,0.206108 2.479546,0.828079 3.780442,1.439471 3.578365,2.05441 6.927783,4.47131 10.023684,7.197743 1.956647,1.723139 2.897226,2.71451 4.714127,4.526854 1.38931,1.413611 2.69818,2.904201 3.99001,4.406491 0.18713,0.217616 0.39061,0.423971 0.54888,0.6634 0.063,0.09525 0.009,0.388032 0.10513,0.326008 4.10966,-2.658934 8.09742,-5.50169 12.14614,-8.252535 -0.32326,-0.02807 -0.65037,-0.02712 -0.96979,-0.08422 -3.93657,-0.70368 -7.7145,-2.482002 -11.33395,-4.119068 -3.55989,-1.749097 -7.27296,-3.156024 -10.872218,-4.817028 -0.680423,-0.314005 -1.35107,-0.648775 -2.026605,-0.973163 -1.630467,-0.818068 -3.223977,-1.709266 -4.760769,-2.692455 -0.432023,-0.276395 -1.677265,-1.10412 -2.114642,-1.46409 -0.216566,-0.178238 -0.400703,-0.392573 -0.601055,-0.588859 1.998105,-4.574247 0.489931,-1.000575 -11.619013,7.751613 -0.279035,0.201684 0.658299,-0.235167 1.002293,-0.249489 0.549267,-0.02287 1.099908,0.05622 1.643331,0.139336 1.268461,0.19401 2.687284,0.610967 3.91959,0.940303 3.021034,0.894074 6.037902,1.807176 9.026938,2.804013 1.036167,0.345559 2.076418,0.680273 3.10147,1.057527 1.056316,0.38876 2.093923,0.82658 3.140885,1.23987 4.967815,2.033776 9.837125,4.299366 14.609135,6.755974 5.10461,2.559352 2.24285,1.394624 13.62861,-7.086076 0.45089,-0.33585 -0.55998,-0.986859 -0.94294,-1.398497 -0.57764,-0.620907 -2.96791,-2.217349 -3.46185,-2.571779 -0.7889,-0.566077 -1.56723,-1.146729 -2.35085,-1.720094 -2.31126,-1.767712 -4.5577,-3.621266 -6.72381,-5.564358 -0.3124,-0.280238 -3.11982,-2.859776 -3.4722,-3.289022 -0.31391,-0.382372 -0.49031,-0.859399 -0.73547,-1.289099 4.31838,-3.61166 -7.170105,4.141646 -10.293837,6.822713 -0.619698,0.531881 1.633535,-0.148633 2.44823,-0.0921 1.000071,0.06939 1.987827,0.271245 2.970777,0.468113 2.46885,0.494466 4.23224,1.061804 6.66014,1.763923 5.63521,1.742419 11.12387,3.982411 16.41315,6.592818 0.73314,0.361823 1.45106,0.753681 2.17659,1.130522 1.15236,0.658006 1.90891,1.018265 2.91217,1.820089 0.24259,0.19388 0.47025,0.409753 0.66902,0.648353 0.0994,0.119336 0.35573,0.346767 0.21534,0.413219 -0.1711,0.08099 -0.64821,-0.173263 -0.49308,-0.281752 3.80871,-2.663641 7.80843,-5.043144 11.71265,-7.564715 -0.76212,-0.05283 -1.5311,-0.0436 -2.28636,-0.158489 -2.62641,-0.399512 -5.3999,-1.174033 -7.90837,-1.984921 -4.24789,-1.373175 -8.34142,-3.141593 -12.43451,-4.908985 -2.57231,-1.18694 -5.19959,-2.313222 -7.62825,-3.786882 -0.33513,-0.203354 -0.67983,-0.403395 -0.96443,-0.672964 -0.0966,-0.09145 -0.0297,-0.447157 -0.14039,-0.373473 -4.04507,2.692072 -7.94371,5.597949 -11.915567,8.396924 4.943897,1.131277 9.789357,2.699015 14.523277,4.513466 1.33575,0.511978 2.65187,1.073784 3.9778,1.610676 1.23255,0.537676 2.46994,1.064379 3.69765,1.613029 1.57225,0.702627 4.67147,2.14046 6.27792,2.929371 1.38663,0.680962 3.02455,1.523873 4.37245,2.321393 0.46839,0.277135 0.91714,0.58619 1.37571,0.879285 0.27994,0.22049 0.60162,0.396437 0.83982,0.661469 0.0782,0.08704 0.0432,0.230043 0.0648,0.345065 3.98758,-2.759352 8.08114,-5.371517 11.96275,-8.278054 0.24407,-0.182758 -0.61294,0.04895 -0.91471,0.0053 -0.47101,-0.0681 -0.92515,-0.223729 -1.38709,-0.338142 -0.72767,-0.180228 -1.4545,-0.363852 -2.18175,-0.545777 -6.37012,-1.631248 -12.6468,-3.621898 -18.84277,-5.819571 -0.67153,-0.254053 -3.41501,-1.196529 -4.1981,-1.789796 -0.16421,-0.124406 -0.0246,-0.703368 -0.19434,-0.586694 -3.69478,2.538902 -7.663,4.835737 -10.73737,8.098514 -0.72177,0.766 2.10598,-0.109353 3.15698,-0.05356 1.42649,0.07572 2.84139,0.29826 4.26209,0.447389 5.62242,0.913929 11.20856,2.050217 16.74382,3.3943 2.0212,0.490792 3.57859,0.913836 5.55769,1.43913 1.05823,0.367403 2.18517,0.511924 3.24701,0.869666 0.18447,0.06215 0.35547,0.361106 0.52242,0.261002 4.22347,-2.532347 8.57229,-4.929493 12.41011,-8.015208 0.42624,-0.342709 -0.90805,-0.630533 -1.42097,-0.820371 -0.66667,-0.246743 -1.38602,-0.316677 -2.07903,-0.475016 -4.53095,-1.12608 -8.82778,-3.007875 -12.98343,-5.106826 -0.97819,-0.494068 -1.96405,-0.97773 -2.90441,-1.540471 -0.7007,-0.419319 -1.33999,-0.933629 -2.00998,-1.400443 -0.1256,-0.11883 -1.69967,-1.361563 -1.6566,-1.985429 0.0123,-0.178498 0.65968,-0.264264 0.51075,-0.165088 -3.78221,2.518838 -7.859,4.620404 -11.42674,7.434811 -0.67439,0.531993 1.68289,-0.400592 2.54149,-0.425689 1.33403,-0.03899 2.66463,0.15638 3.99694,0.234569 9.67807,1.168622 19.10359,3.766264 28.4396,6.489052 2.72277,0.85962 5.48026,1.644182 8.11451,2.759014 0.12801,0.05417 2.04067,0.847365 2.28624,1.289557 0.0702,0.126412 -0.28589,0.04363 -0.42883,0.06545 3.72933,-2.549573 7.72658,-4.745821 11.188,-7.648719 0.65525,-0.549523 -1.68115,0.351939 -2.53537,0.392247 -1.31193,0.06191 -2.62904,0.005 -3.93922,-0.08673 -3.27966,-0.229652 -6.81875,-0.791424 -10.03051,-1.428459 -1.73888,-0.344896 -3.45929,-0.7771 -5.18894,-1.165649 -4.40396,-1.099474 -8.78546,-2.301358 -13.10884,-3.686792 -1.26861,-0.406528 -4.02343,-1.230734 -5.31471,-2.081424 -0.24646,-0.16237 -0.34388,-0.479771 -0.51582,-0.719657 -3.79667,2.76693 -7.79712,5.273957 -11.39002,8.300791 -0.45524,0.383513 1.17959,-0.220381 1.77449,-0.200195 0.79187,0.02687 1.57416,0.191974 2.35249,0.340226 1.66351,0.316856 3.58365,0.851493 5.18667,1.379493 0.8719,0.287182 1.72702,0.622987 2.59052,0.93448 2.18977,0.898031 4.37171,1.840272 6.45548,2.967934 0.51423,0.278279 1.83073,0.979381 2.27666,1.554375 0.0789,0.101696 0.008,0.257258 0.0124,0.385887 3.86391,-2.702772 7.72782,-5.405544 11.59172,-8.108316 -0.36717,0.09411 -0.72323,0.258379 -1.10151,0.282319 -0.50614,0.03203 -1.01427,-0.04964 -1.51698,-0.116605 -1.69968,-0.226406 -3.33577,-0.719376 -4.96786,-1.223094 -2.65514,-0.922312 -5.30622,-1.859362 -7.94082,-2.83908 -3.44299,-1.409294 -6.71054,-3.206222 -9.88929,-5.129464 -0.72838,-0.477298 -1.11223,-0.692734 -1.74999,-1.226892 -0.14961,-0.125302 -0.29989,-0.253455 -0.42247,-0.405293 -0.0424,-0.05257 -0.10877,-0.240991 -0.0609,-0.193352 0.20224,0.201072 0.77433,0.508844 0.53659,0.666355 -4.1173,2.727899 -8.53465,4.973348 -12.80197,7.460022 0.10666,0.0063 0.21595,-0.0054 0.31998,0.01898 0.6283,0.147212 1.23766,0.523926 1.79908,0.820985 1.4231,0.752998 0.18411,0.107835 1.7517,0.917886 0.39535,0.189443 0.78526,0.390678 1.18605,0.568328 0.72668,0.322103 2.96964,1.222537 3.61535,1.490511 2.09158,0.868021 4.16415,1.776752 6.2317,2.700141 3.03333,1.511967 6.20894,2.733188 9.18589,4.359339 0.4317,0.235815 0.84977,0.495769 1.27466,0.743653 0.75428,0.480421 0.99187,0.592421 1.6286,1.12056 0.0953,0.07905 0.54722,0.462608 0.53003,0.592182 -0.007,0.0542 -0.11549,-0.01859 -0.15347,-0.05793 -0.15063,-0.156028 -0.26585,-0.342729 -0.39877,-0.514093 4.1994,-2.52694 8.38022,-5.08503 12.59822,-7.580821 0.0793,-0.0469 -0.0811,0.181193 -0.16318,0.222994 -0.11028,0.05617 -0.24451,0.05103 -0.36823,0.04765 -0.71277,-0.01943 -1.41226,-0.273194 -2.08002,-0.491085 -0.23228,-0.09763 -0.46921,-0.184858 -0.69685,-0.292876 -0.17294,-0.08207 -0.34082,-0.175338 -0.50327,-0.276606 -0.10201,-0.06359 -0.20379,-0.131192 -0.28819,-0.216788 -0.0188,-0.01907 0.10219,-0.0094 0.0802,0.0058 -12.18813,8.414388 -16.88626,9.01879 -11.1935,8.131237 1.39609,-0.04472 2.78879,0.08893 4.1739,0.246218 0.75241,0.08544 1.83464,0.253353 2.59958,0.277057 0.40107,0.01243 0.80221,-0.02291 1.20331,-0.03437 0.35889,-0.06649 0.72368,-0.106622 1.07667,-0.199458 0.31108,-0.08181 0.63154,-0.160739 0.90935,-0.322859 4.33736,-2.531135 8.71341,-5.005974 12.9207,-7.747879 0.27281,-0.177789 0.28595,-0.590889 0.36089,-0.907774 0.19371,-0.819023 0.0669,-1.27907 -0.0264,-2.101733 -0.18604,-0.421238 -0.33714,-0.859709 -0.55812,-1.263715 -0.74742,-1.366477 -1.89694,-2.727531 -2.85091,-3.960153 -0.30875,-0.398932 -0.63305,-0.786582 -0.92179,-1.200227 -0.22882,-0.327799 -0.41922,-0.680798 -0.62883,-1.021197 -0.0431,-0.233921 -0.28087,-0.518551 -0.12919,-0.701763 0.13408,-0.161952 0.79723,-0.0086 0.62162,0.106962 -3.8996,2.567131 -8.02904,4.773037 -11.93031,7.337626 -0.26549,0.174525 0.62866,-0.133058 0.94597,-0.116811 0.87228,0.04467 2.42282,0.536697 3.16377,0.741671 3.39836,1.243459 6.68047,2.819267 9.78589,4.677982 0.47751,0.285811 0.94149,0.593641 1.41224,0.890462 -0.79152,0.13946 1.67567,0.805744 1.28225,1.256725 -0.13413,0.153744 -0.70103,-0.186048 -0.53274,-0.301385 3.97934,-2.727118 8.25667,-5.000959 12.2402,-7.721958 0.24669,-0.168506 -0.60135,0.02328 -0.89584,-0.02695 -0.45492,-0.07758 -0.89228,-0.236051 -1.33842,-0.354077 -3.02103,-1.076325 -5.89009,-2.53222 -8.74433,-3.983703 -1.80648,-0.916746 -3.64918,-1.797481 -5.34164,-2.91802 -4.7675,-2.789599 -0.79113,-0.644333 -13.38829,7.378742 -0.10874,0.06926 0.23299,1.184368 -0.0897,1.35115 -0.16624,0.08593 -0.37346,0.02477 -0.56018,0.03716 3.58021,-2.187698 7.45991,-3.947617 10.74065,-6.563094 0.96267,-0.767462 -2.37737,0.657207 -3.59114,0.863348 -1.71867,0.291892 -3.45437,0.48765 -5.19197,0.628337 -3.78067,0.306106 -8.72972,0.360191 -12.49372,0.283446 -2.08426,-0.0425 -4.16575,-0.174307 -6.24862,-0.261461 -1.89848,-0.13515 -3.79696,-0.2703 -5.69544,-0.40545 0,0 -8.38808,6.026641 -8.38808,6.026641 v 0 c 1.99338,0.07127 3.98675,0.142549 5.98012,0.213824 5.92299,0.2558 11.84532,0.526002 17.76743,0.801333 1.40712,0.06542 2.81359,0.144561 4.22093,0.204925 0.88912,0.03814 1.85566,0.45342 2.66826,0.09057 4.74824,-2.120229 9.15151,-4.941103 13.72727,-7.411655 0.80232,-1.718961 0.14947,-0.141668 0.49584,-1.362913 0.0264,-0.09309 0.0503,-0.197733 0.12081,-0.26396 0.0586,-0.055 0.30114,-0.107129 0.23161,-0.06686 -12.73188,7.373776 -14.28858,11.717767 -12.40064,6.779461 0.18227,-0.01681 0.36698,-0.08454 0.54683,-0.05044 0.32341,0.06132 1.53591,0.634354 1.77082,0.742318 1.16071,0.533468 2.31481,1.081472 3.48318,1.598224 2.94192,1.27997 5.89284,2.554562 8.71213,4.09194 0.36804,0.214899 0.74068,0.422099 1.10411,0.644695 0.26723,0.163679 0.50858,0.656986 0.78732,0.513779 4.50037,-2.312128 8.88855,-4.861252 13.1083,-7.652846 0.2372,-0.156925 -0.30679,-0.493489 -0.5322,-0.666929 -0.60723,-0.467223 -1.54278,-0.386037 -2.0807,-0.97668 -3.80769,-1.848276 -7.59036,-3.744875 -11.35858,-5.672519 -2.05555,-1.102051 -0.93674,-0.551796 -2.75839,-1.368395 -0.33287,-0.149215 -0.67057,-0.615207 -0.99672,-0.451825 -1.43853,0.72063 -15.1267,3.871848 -12.93222,8.460341 0.13784,0.288216 0.37945,0.514088 0.56918,0.771132 1.45346,1.653917 3.44012,3.690369 4.13385,5.806829 0.10342,0.315509 0.11557,0.653919 0.17336,0.980879 -0.08,0.635396 -0.0233,0.87621 -0.4102,1.402944 -0.13521,0.184069 -0.69522,0.583982 -0.49548,0.473243 3.89359,-2.158599 7.71069,-4.452908 11.59558,-6.627123 0.29186,-0.163346 -0.5201,0.425664 -0.81069,0.591257 -0.31392,0.178883 -0.66154,0.290772 -0.99231,0.436157 -0.37568,0.08955 -0.74357,0.222719 -1.12704,0.26866 -0.85666,0.102632 -1.79886,-0.02472 -2.64463,-0.116873 -1.26561,-0.13789 -2.53389,-0.294395 -3.77177,-0.601078 -5.40806,-1.963064 -0.98456,-0.562555 -13.37104,8.05989 -0.12267,0.08539 0.21414,0.212484 0.34177,0.290258 0.14762,0.08995 0.3161,0.140084 0.47524,0.207586 0.46118,0.195619 0.92727,0.379514 1.38801,0.576199 1.99796,0.888668 -0.40981,-0.190161 1.41646,0.651178 0.39326,0.181169 0.5806,0.240092 0.95029,0.440745 0.13935,0.07564 0.27013,0.320763 0.4086,0.243526 4.38518,-2.445943 8.63337,-5.129772 12.95006,-7.694658 -0.18137,-0.477584 -0.21253,-0.771411 -0.5729,-1.110695 -0.23008,-0.216621 -0.82571,-0.516441 -1.06628,-0.632462 -0.66881,-0.322548 -1.44702,-0.634011 -2.12355,-0.916265 -1.42641,-0.586053 -1.78787,-0.724883 -3.25779,-1.372649 -2.57832,-1.136222 -5.09964,-2.399533 -7.71448,-3.453569 -3.47025,-1.529606 -6.9893,-3.013572 -10.11706,-5.190901 -1.1996,-0.764585 -2.41788,-1.510717 -3.50472,-2.433954 -4.39565,2.450464 -8.95131,4.633686 -13.18695,7.35139 -0.26209,0.168164 0.28381,0.561623 0.48847,0.796321 0.10528,0.120731 0.27334,0.167707 0.4159,0.240765 0.53452,0.273939 1.08884,0.507415 1.63124,0.7654 0.40545,0.192842 0.80886,0.389917 1.21329,0.584876 3.40135,1.616457 6.76035,3.321196 10.07988,5.099688 1.0412,0.592721 1.64314,0.979911 2.71738,1.438841 1.69726,0.725085 3.54143,1.018767 5.28809,1.593335 2.3342,0.679449 0.96789,0.277658 3.32543,0.980492 0.1426,0.04251 2.67561,0.7922 2.93113,0.883452 0.36335,0.129758 0.73323,0.645088 1.06629,0.450323 4.35669,-2.547703 8.38508,-5.619324 12.57762,-8.428986 -0.24083,-0.168664 -0.4644,-0.365141 -0.72249,-0.505991 -0.63595,-0.347073 -2.44771,-1.067188 -3.00227,-1.290097 -2.30354,-0.925917 -4.62069,-1.818068 -6.91813,-2.759255 -2.54662,-0.982352 -2.57832,-1.020971 -5.13565,-1.904039 -0.63837,-0.220437 -3.5762,-1.167057 -4.32001,-1.501423 -0.4604,-0.206962 -0.87203,-1.007388 -1.31093,-0.758057 -4.30593,2.446143 -8.14822,5.630743 -12.22233,8.446114 0.52063,0.06358 1.04485,0.102608 1.56189,0.190741 1.98337,0.33808 4.54593,0.942565 6.44888,1.374894 4.62843,1.051528 9.25039,2.131176 13.87499,3.199317 4.71395,1.147595 9.42321,2.315612 14.12726,3.503138 1.04491,0.263783 2.08781,0.535529 3.12928,0.812572 0.65127,0.173247 1.34735,0.842301 1.94879,0.53826 4.59084,-2.320778 8.73705,-5.432405 13.10558,-8.148607 -0.23121,-0.259266 -0.39497,-0.600355 -0.69362,-0.777797 -0.39764,-0.236258 -3.11282,-0.858965 -3.25557,-0.892035 -3.09356,-0.716649 -6.20885,-1.338006 -9.31363,-2.002759 -9.44419,-1.993963 -18.88982,-4.029146 -28.14148,-6.807713 -1.05198,-0.326284 -2.11241,-0.626446 -3.15593,-0.978854 -0.66796,-0.225577 -1.34192,-1.062486 -1.976,-0.754257 -4.58546,2.229035 -8.87063,5.066195 -13.01202,8.040073 -0.29229,0.209889 0.20971,0.712228 0.44728,0.982504 0.53276,0.606124 2.38616,1.418824 2.91319,1.682305 3.03414,1.324293 6.07057,2.642184 9.04561,4.096666 2.55007,1.246712 3.75168,1.905206 6.19925,3.233571 0.74842,0.406193 1.49361,0.818335 2.24041,1.227503 0.45998,0.269448 0.89723,0.58212 1.37994,0.808343 0.0708,0.03319 0.16116,-0.01434 0.22814,-0.05471 4.17706,-2.517132 8.37248,-5.005657 12.49444,-7.61203 0.27483,-0.173778 -0.60517,0.265256 -0.92859,0.298796 -0.96894,0.10048 -3.17792,-0.160789 -4.00418,-0.236489 -7.77433,-0.991851 -15.5077,-2.348002 -23.11124,-4.263196 -1.15521,-0.352899 -2.32411,-0.66373 -3.46562,-1.058697 -0.7492,-0.259224 -1.48522,-1.243318 -2.20069,-0.90187 -17.77851,8.484488 -17.50165,7.001193 -11.70394,8.377202 2.5198,0.598041 2.23319,0.551257 4.95467,1.321848 3.24317,0.955839 6.46824,1.941792 9.66968,3.031052 2.08248,0.708548 4.00464,1.366404 6.03654,2.200309 0.79987,0.328273 1.58096,0.700579 2.37143,1.050868 0.47925,0.244492 2.19061,1.095005 2.79179,1.469698 0.25893,0.161379 0.47443,0.693037 0.73867,0.540511 15.34726,-8.858908 16.88252,-6.623441 10.64179,-8.90939 -5.86616,-2.121545 -11.70332,-4.326089 -17.48833,-6.660364 -3.67572,-1.540065 -7.33713,-3.092545 -10.89309,-4.897928 -0.88083,-0.4472 -3.10914,-1.642801 -4.09677,-2.283692 -0.28725,-0.186403 -0.54312,-0.417214 -0.81467,-0.625822 -4.21102,2.681151 -8.47667,5.27836 -12.633048,8.043453 -0.197311,0.131264 0.466616,-0.124999 0.702897,-0.106742 0.519898,0.04017 1.030441,0.165166 1.539091,0.279973 3.07791,0.694708 6.05668,1.756336 9.01756,2.830738 6.98782,2.641038 14.05719,5.228291 20.55837,8.951688 4.46848,-2.471524 9.08596,-4.691006 13.40544,-7.414572 0.24786,-0.156282 -0.2353,-0.548461 -0.43222,-0.765439 -0.28873,-0.318134 -1.50857,-0.859908 -1.75908,-0.971452 -1.23493,-0.549875 -2.37541,-0.972255 -3.64579,-1.466105 -2.90146,-1.08313 -5.80849,-2.152524 -8.70319,-3.253619 -4.48759,-1.707 -2.59042,-1.003298 -7.11537,-2.790489 -1.1609,-0.458512 -2.32514,-0.908509 -3.48771,-1.362763 -1.08905,-0.376287 -2.17579,-0.759313 -3.26715,-1.128861 -1.00508,-0.340333 -2.01468,-0.667159 -3.02202,-1.000738 -0.87504,-0.287505 -1.75264,-0.567324 -2.62512,-0.862515 -0.67537,-0.228504 -1.36911,-1.003491 -2.0182,-0.708493 -14.358704,6.525689 -15.585365,3.202879 -12.813238,8.738732 0.440164,0.389759 0.870158,0.791315 1.320492,1.169278 0.595275,0.499613 1.210311,0.975196 1.815502,1.46275 2.944574,2.372208 5.922174,4.706655 8.774314,7.190595 1.51366,1.443634 2.19857,1.978065 3.43743,3.56463 0.27794,0.355942 0.53136,0.734337 0.74001,1.134847 0.0211,0.04059 -0.13972,0.116476 -0.0995,0.09462 4.12487,-2.241812 8.29502,-4.403822 12.35755,-6.75671 0.32267,-0.186884 -0.72939,0.155508 -1.09408,0.233262 -0.60034,-0.106901 -1.21475,-0.152991 -1.80101,-0.320703 -0.52494,-0.150166 -4.54771,-1.724442 -4.89431,-1.861651 -3.01378,-1.193051 -6.0067,-2.438816 -8.97921,-3.731174 -1.01134,-0.443817 -2.02778,-0.876214 -3.03403,-1.331453 -2.95994,-1.339103 -2.37944,-1.189217 -5.211866,-2.331426 -1.682193,-0.678365 -2.524319,-0.954507 -4.224509,-1.512965 -0.662547,-0.217625 -1.327788,-0.426959 -1.991681,-0.640438 -1.696665,-0.546177 -3.374534,-1.107545 -5.023573,-1.786367 -0.336049,-0.138334 -0.685826,-0.612477 -1.001097,-0.431731 -13.551131,7.768927 -16.137733,4.640857 -12.164788,8.864805 2.69212,1.772997 5.65596,3.085049 8.577448,4.427368 4.356349,1.894379 8.673661,3.877951 13.055754,5.712681 1.292978,0.545116 3.433143,1.44086 4.708383,2.005246 2.161799,0.95675 4.366859,1.943172 6.220579,3.437793 4.21482,-2.711905 8.4978,-5.320691 12.64445,-8.135717 0.13643,-0.09261 -0.3249,-0.06463 -0.47916,-0.12289 -0.29959,-0.113162 -0.59353,-0.242955 -0.87815,-0.389783 -1.86371,-0.961461 -3.5641,-2.207055 -5.15203,-3.569941 -1.88226,-1.62149 -3.15178,-2.695329 -5.00943,-4.379926 -3.01788,-2.736745 -5.88959,-5.661023 -9.233116,-8.013793 -1.7981,-1.205112 -1.664161,-1.192445 -3.47257,-2.133104 -0.451217,-0.234704 -0.914868,-0.883493 -1.373725,-0.6641 -4.581405,2.190505 -8.983726,4.778481 -13.188045,7.626512 -0.309606,0.20973 0.158313,0.748311 0.362223,1.061781 0.286656,0.440677 0.718373,0.767732 1.07756,1.151598 3.864953,3.223355 7.885119,6.256679 11.710895,9.527638 4.801285,4.74551 1.172913,1.961344 14.457618,-6.138109 0.18923,-0.11537 -0.40775,-0.176189 -0.60004,-0.286391 -1.37342,-0.78714 -2.60614,-1.786663 -3.84753,-2.761017 -0.42617,-0.369767 -0.87051,-0.719574 -1.27851,-1.109302 -0.34036,-0.325126 -0.65529,-0.676553 -0.96349,-1.032318 -0.0291,-0.03359 -0.002,-0.148074 -0.0408,-0.126947 -27.062934,14.621994 -16.311956,5.562247 -11.555995,7.184771 0.523027,0.178434 1.004181,0.461742 1.506272,0.692613 0.509409,0.323504 1.045034,0.609019 1.528228,0.970512 5.029632,3.762834 -4.570835,6.006357 13.488515,-6.613336 0.40705,-0.284448 -0.99844,-0.05677 -1.47831,-0.184577 -0.83757,-0.22307 -3.90549,-1.477732 -4.614479,-1.760669 -1.331611,-0.588299 -2.955158,-1.251657 -4.228684,-2.002687 -0.472861,-0.278857 -0.868613,-1.204047 -1.350941,-0.941905 -5.520324,3.000256 -16.086301,6.492984 -11.742022,9.073705 0.41552,0.24684 0.875831,0.408984 1.313746,0.613476 1.856107,0.70336 3.775469,1.324321 5.540936,2.242889 0.349087,0.181629 0.647901,0.817198 0.99602,0.63372 4.279126,-2.25534 8.314903,-4.954522 12.327394,-7.655903 0.45086,-0.30354 -1.05077,0.278463 -1.57615,0.417695 -0.87638,-0.0011 -1.753263,0.02629 -2.629148,-0.0032 -1.071479,-0.03606 -2.140556,-0.124664 -3.210439,-0.193337 -4.471038,-0.286981 -8.93411,-0.674354 -13.401471,-1.01094 -0.715157,-0.04265 -1.429829,-0.09441 -2.145471,-0.127954 -0.468587,-0.02196 -0.997305,-0.267434 -1.406776,-0.03855 -4.470343,2.498849 -8.901262,5.107182 -13.04496,8.11683 -0.300167,0.218017 0.240976,0.729793 0.502204,0.993216 0.278452,0.280793 2.086896,0.86349 2.274856,0.929982 3.798956,1.240252 7.638338,2.344011 11.468905,3.480726 6.217146,2.33284 0.807228,0.736451 14.246985,-7.859207 0.14198,-0.09081 -0.161909,0.339923 -0.323195,0.388825 -0.433782,0.131524 -0.90138,0.109984 -1.354555,0.119875 -0.832395,0.01817 -3.929556,-0.112565 -4.62618,-0.138808 -1.930137,-0.09261 -3.697825,-0.167298 -5.62772,-0.301492 -2.372355,-0.164962 -2.841856,-0.231763 -5.116615,-0.462961 -0.588924,-0.05985 -1.179368,-0.106104 -1.766863,-0.178655 -0.354846,-0.04382 -0.706011,-0.113546 -1.059016,-0.170318 -4.134189,2.883675 -8.268378,5.767351 -12.402567,8.651026 0.206874,-0.105556 0.399595,-0.24535 0.620622,-0.316668 0.398258,-0.128503 0.816423,-0.18426 1.224135,-0.278568 1.808651,-0.418359 3.614601,-0.849218 5.412085,-1.313492 0.913071,-0.242274 3.362732,-0.887394 4.282734,-1.150662 0.611781,-0.175067 1.270823,-0.243945 1.827269,-0.55264 4.519611,-2.50731 9.083226,-4.967787 13.358664,-7.871943 0.427257,-0.290221 0.48432,-0.977307 0.42424,-1.490305 -0.04931,-0.421039 -0.480956,-0.698214 -0.721435,-1.047321 -0.47018,-0.304947 -0.930969,-0.624887 -1.41054,-0.914843 -0.23644,-0.142955 -3.709074,-2.107416 -3.819465,-2.170124 -2.415823,-1.372306 -2.064605,-1.158084 -4.487741,-2.622878 -0.745428,-0.450613 -1.487055,-0.907485 -2.230583,-1.361228 -1.507682,-0.995819 -2.13482,-1.419796 -3.592821,-2.349824 -0.412927,-0.263398 -0.805503,-0.998046 -1.244581,-0.781026 -4.53942,2.24367 -8.845325,4.960605 -13.017362,7.830186 -0.260948,0.179483 0.169348,0.622448 0.347464,0.884333 0.224451,0.330012 0.557719,0.571047 0.836579,0.856571 0.461667,0.330701 0.904796,0.688947 1.385,0.992102 1.264905,0.798543 2.904726,1.610526 4.238913,2.235462 2.977604,1.394714 6.028086,2.645889 9.168017,3.628366 3.391437,1.107222 6.812806,2.155818 10.162817,3.385391 0.779222,0.286002 1.565057,0.561301 2.315825,0.915324 0.464119,0.218854 0.872267,1.054107 1.316668,0.797569 4.273627,-2.467024 8.062074,-5.692395 12.09311,-8.538592 -2.024698,-0.21119 -4.032313,-0.52919 -6.04483,-0.835218 -0.626966,-0.09534 -5.609932,-0.864365 -6.103222,-0.943474 -1.112269,-0.178374 -2.22276,-0.367668 -3.334141,-0.551502 -1.042405,-0.17163 -5.036886,-0.821415 -6.178351,-1.038539 -0.75622,-0.143844 -1.546711,-0.776633 -2.258271,-0.482962 -4.83858,1.996954 -9.53028,4.400364 -13.966311,7.179089 -0.38553,0.241496 0.551869,0.775085 0.965408,0.964664 0.473632,0.217128 1.034396,0.126139 1.551594,0.189209 2.318939,0.296407 4.640157,0.57348 6.959305,0.868284 1.433383,0.182208 4.14791,0.523301 5.574102,0.759162 0.812826,0.134424 1.618654,0.308196 2.427982,0.462293 6.389502,1.947578 2.131413,1.109713 14.350515,-7.91327 0.259523,-0.191641 -0.609099,-0.215826 -0.922073,-0.294094 -0.579018,-0.144799 -1.167309,-0.249606 -1.750971,-0.374374 -3.556559,-0.760276 -1.663227,-0.334841 -5.647664,-1.285253 -3.958469,-0.948607 -7.915585,-1.898252 -11.868161,-2.871116 -2.719483,-0.669358 -5.0284,-1.270543 -7.771386,-1.774067 -1.05858,-0.194322 -2.128026,-0.323909 -3.192039,-0.485863 -7.395549,-0.657607 -3.832347,-0.825506 -16.137092,7.447221 -0.434001,0.291788 -0.302671,1.063404 -0.145377,1.562158 0.159241,0.504924 0.612638,0.879937 1.021594,1.216182 1.16334,0.956499 3.169928,1.779295 4.458199,2.385964 1.017423,0.399873 2.028943,0.815105 3.05227,1.199619 5.098449,1.915737 10.334772,3.456195 15.376519,5.52316 6.05009,3.143664 1.129848,1.153099 14.489378,-7.221943 0.160765,-0.100783 -0.324738,0.235282 -0.51428,0.244 -0.462778,0.02129 -0.925645,-0.07117 -1.380923,-0.156829 -0.215304,-0.04051 -4.205169,-1.023978 -4.217774,-1.027074 -3.351644,-0.858937 -6.817402,-1.685022 -9.986949,-3.102473 -0.520482,-0.232765 -0.999188,-1.054282 -1.510643,-0.8023 -4.467766,2.201164 -8.488179,5.212966 -12.732268,7.81945 0.453269,-0.08638 0.898497,-0.269482 1.359806,-0.259133 1.53429,0.03442 4.770961,0.753802 6.118016,1.03959 3.163662,0.671196 6.325489,1.386892 9.399319,2.404123 6.18138,2.507782 1.969158,1.29668 14.392751,-7.613001 0.234964,-0.168506 -0.503333,-0.289433 -0.773298,-0.392976 -0.50865,-0.195088 -1.042852,-0.317035 -1.555862,-0.500353 -1.687591,-0.603043 -3.328236,-1.33329 -5.035501,-1.883704 -3.745013,-1.371257 -7.498203,-2.727154 -11.194416,-4.226986 -3.311848,-1.343866 -5.127458,-2.146714 -8.34033,-3.672904 -1.206501,-0.573117 -2.39824,-1.176807 -3.59736,-1.765211 -0.967575,-0.51926 -1.946819,-1.01734 -2.902725,-1.55778 -0.677686,-0.383142 -1.283055,-1.523834 -1.996375,-1.212016 -6.257982,2.735592 -16.562545,4.077433 -12.381057,8.741057 0.70576,0.787136 1.980532,1.811726 2.753942,2.466459 3.822543,3.209649 7.653675,6.410017 11.545326,9.535773 0.479559,0.413667 0.981635,0.802583 1.438677,1.241 0.305068,0.292636 0.46414,1.135363 0.84287,0.94757 4.369941,-2.16683 8.317872,-5.097924 12.520462,-7.573762 0.255896,-0.150754 -0.375963,0.531826 -0.667075,0.590672 -0.477809,0.09658 -3.223242,-0.420024 -3.501785,-0.467143 -2.219419,-0.407392 -4.451387,-0.796631 -6.621734,-1.427379 -0.614349,-0.178543 -1.226485,-0.370677 -1.819707,-0.61024 -0.393779,-0.159021 -0.76174,-0.78808 -1.133198,-0.582245 -4.41048,2.443961 -8.4573,5.493195 -12.68595,8.239792 0.814385,-0.06707 0.40769,-0.08594 1.458105,0.163476 1.31199,0.311522 2.607288,0.687475 3.897655,1.077668 4.384536,-2.516467 8.899545,-4.818154 13.153606,-7.549402 0.339969,-0.218271 -0.350851,-1.388131 -0.446833,-1.51524 -0.741393,-0.981819 -1.928815,-1.606312 -2.806626,-2.440427 -1.231187,-1.010351 -2.448873,-2.007564 -3.522488,-3.189846 -0.25233,-0.27787 -0.382325,-1.019733 -0.723357,-0.862956 -13.995245,6.433812 -15.70785,2.967696 -12.836347,7.930343 1.739786,1.908551 3.627622,3.72346 5.840159,5.077061 0.12343,0.07645 1.74263,1.066874 1.940825,1.232801 0.298484,0.249886 0.480191,1.040999 0.812729,0.838627 19.939093,-12.134272 16.479789,-7.086282 11.376145,-8.933856 -0.426364,-0.154349 -0.843348,-0.333473 -1.265021,-0.500209 -0.53352,-0.29713 -1.077714,-0.575856 -1.60056,-0.891391 -0.992561,-0.599006 -2.242001,-1.455796 -3.161288,-2.170809 -0.663654,-0.516184 -1.522365,-1.246061 -2.098009,-1.897425 -0.115758,-0.130985 -0.191629,-0.292413 -0.287444,-0.438619 -4.219132,2.548872 -8.438264,5.097745 -12.657396,7.646618 0.200966,-0.02801 0.402018,-0.112657 0.602896,-0.08403 0.371481,0.05294 0.727957,0.188926 1.078187,0.32361 0.460539,0.177105 0.89825,0.408675 1.348849,0.60973 1.273075,0.568043 1.743886,0.766324 3.037594,1.324532 1.141106,0.457633 1.86485,0.768619 3.020715,1.154126 0.412793,0.137676 0.834183,0.248127 1.250178,0.375802 0.326758,0.100287 0.673936,0.464123 0.978034,0.308068 13.874306,-7.119923 15.544468,-3.120342 12.777997,-8.513292 -1.008083,-0.578437 -0.244742,-0.170355 -1.554993,-0.76016 -1.880246,-0.846387 -3.755774,-1.71593 -5.542205,-2.748986 -1.937182,-1.206108 -0.503777,-0.332473 -2.178621,-1.313398 -0.259636,-0.152064 -0.504935,-0.593721 -0.775467,-0.462014 -2.701464,1.315198 -15.228537,2.793111 -13.025051,8.172868 0.08355,0.203977 0.234317,0.373419 0.351476,0.560129 1.418341,1.40183 3.130649,2.513107 4.950589,3.319775 1.147332,0.427531 1.065863,0.425478 2.235033,0.750244 0.647083,0.179744 1.308582,0.305624 1.953543,0.492839 0.245963,0.0714 0.506088,0.378765 0.726886,0.248983 4.359187,-2.562267 8.514989,-5.455811 12.772483,-8.183717 C 61.631638,22.376938 61.549633,22.129964 61.398409,21.926192 61.233418,21.703868 60.704885,21.433629 60.489141,21.327606 59.785008,20.981573 59.040071,20.72563 58.319729,20.417452 57.30724,19.990504 56.180004,19.555534 55.35,18.818043 c 0,0 -12.979539,7.554435 -12.979539,7.554435 z" />
</svg>
